{
	"asset":{
		"generator":"Khronos glTF Blender I/O v3.5.30",
		"version":"2.0"
	},
	"extensionsUsed":[
		"KHR_materials_transmission",
		"KHR_materials_specular"
	],
	"scene":0,
	"scenes":[
		{
			"name":"Scene",
			"nodes":[
				0
			]
		}
	],
	"nodes":[
		{
			"mesh":0,
			"name":"CornellBoxExport3",
			"rotation":[
				0.7071068286895752,
				0,
				0,
				0.7071068286895752
			],
			"scale":[
				0.02500000037252903,
				0.02500000037252903,
				0.02500000037252903
			]
		}
	],
	"materials":[
		{
			"doubleSided":true,
			"emissiveFactor":[
				1,
				1,
				1
			],
			"normalTexture":{
				"index":0
			},
			"extensions":{
				"KHR_materials_transmission":{
					"transmissionFactor":1
				},
				"KHR_materials_specular":{
					"specularColorFactor":[
						1,
						1,
						1
					]
				}
			},
			"name":"Colors",
			"pbrMetallicRoughness":{
				"baseColorTexture":{
					"index":1
				},
				"metallicFactor":0,
				"roughnessFactor":0.8999999761581421
			}
		}
	],
	"meshes":[
		{
			"name":"CornellBoxExport3",
			"primitives":[
				{
					"attributes":{
						"POSITION":0,
						"TEXCOORD_0":1,
						"NORMAL":2
					},
					"indices":3,
					"material":0
				}
			]
		}
	],
	"textures":[
		{
			"sampler":0,
			"source":0
		},
		{
			"sampler":0,
			"source":1
		}
	],
	"images":[
		{
			"mimeType":"image/png",
			"name":"GlowMapWithReflectionAlpha512",
			"uri":"GlowMapWithReflectionAlpha512.png"
		},
		{
			"mimeType":"image/png",
			"name":"ColorMapWithOpacityAlpha512",
			"uri":"ColorMapWithOpacityAlpha512.png"
		}
	],
	"accessors":[
		{
			"bufferView":0,
			"componentType":5126,
			"count":1834,
			"max":[
				53.712074279785156,
				99.80492401123047,
				57.28697204589844
			],
			"min":[
				-55.78070831298828,
				-4.314006805419922,
				-53.39677429199219
			],
			"type":"VEC3"
		},
		{
			"bufferView":1,
			"componentType":5126,
			"count":1834,
			"type":"VEC2"
		},
		{
			"bufferView":2,
			"componentType":5126,
			"count":1834,
			"type":"VEC3"
		},
		{
			"bufferView":3,
			"componentType":5123,
			"count":5976,
			"type":"SCALAR"
		}
	],
	"bufferViews":[
		{
			"buffer":0,
			"byteLength":22008,
			"byteOffset":0,
			"target":34962
		},
		{
			"buffer":0,
			"byteLength":14672,
			"byteOffset":22008,
			"target":34962
		},
		{
			"buffer":0,
			"byteLength":22008,
			"byteOffset":36680,
			"target":34962
		},
		{
			"buffer":0,
			"byteLength":11952,
			"byteOffset":58688,
			"target":34963
		}
	],
	"samplers":[
		{
			"magFilter":9729,
			"minFilter":9987
		}
	],
	"buffers":[
		{
			"byteLength":70640,
			"uri":"cornell.bin"
		}
	]
}
