{
	"asset":{
		"generator":"Khronos glTF Blender I/O v3.5.30",
		"version":"2.0"
	},
	"extensionsUsed":[
		"KHR_materials_specular",
		"KHR_materials_ior"
	],
	"scene":0,
	"scenes":[
		{
			"name":"Scene",
			"nodes":[
				0
			]
		}
	],
	"nodes":[
		{
			"mesh":0,
			"name":"CornellBoxExport3_small",
			"rotation":[
				0.7071068286895752,
				0,
				0,
				0.7071068286895752
			]
		}
	],
	"materials":[
		{
			"doubleSided":true,
			"emissiveFactor":[
				1,
				1,
				1
			],
			"normalTexture":{
				"index":0
			},
			"extensions":{
				"KHR_materials_specular":{
					"specularColorFactor":[
						2.371357614441398,
						2.371357614441398,
						2.371357614441398
					]
				},
				"KHR_materials_ior":{
					"ior":1.4500000476837158
				}
			},
			"name":"material_0",
			"pbrMetallicRoughness":{
				"baseColorTexture":{
					"index":1
				},
				"metallicFactor":0
			}
		}
	],
	"meshes":[
		{
			"name":"CornellBoxExport3_small",
			"primitives":[
				{
					"attributes":{
						"POSITION":0,
						"TEXCOORD_0":1,
						"NORMAL":2
					},
					"indices":3,
					"material":0
				}
			]
		}
	],
	"textures":[
		{
			"sampler":0,
			"source":0
		},
		{
			"sampler":0,
			"source":1
		}
	],
	"images":[
		{
			"mimeType":"image/png",
			"name":"GlowMapWithReflectionAlpha512",
			"uri":"GlowMapWithReflectionAlpha512.png"
		},
		{
			"mimeType":"image/png",
			"name":"ColorMapWithOpacityAlpha512",
			"uri":"ColorMapWithOpacityAlpha512.png"
		}
	],
	"accessors":[
		{
			"bufferView":0,
			"componentType":5126,
			"count":4424,
			"max":[
				1.3428020477294922,
				2.4951229095458984,
				1.4321739673614502
			],
			"min":[
				-1.3945180177688599,
				-0.10785000026226044,
				-1.3349189758300781
			],
			"type":"VEC3"
		},
		{
			"bufferView":1,
			"componentType":5126,
			"count":4424,
			"type":"VEC2"
		},
		{
			"bufferView":2,
			"componentType":5126,
			"count":4424,
			"type":"VEC3"
		},
		{
			"bufferView":3,
			"componentType":5123,
			"count":5976,
			"type":"SCALAR"
		}
	],
	"bufferViews":[
		{
			"buffer":0,
			"byteLength":53088,
			"byteOffset":0,
			"target":34962
		},
		{
			"buffer":0,
			"byteLength":35392,
			"byteOffset":53088,
			"target":34962
		},
		{
			"buffer":0,
			"byteLength":53088,
			"byteOffset":88480,
			"target":34962
		},
		{
			"buffer":0,
			"byteLength":11952,
			"byteOffset":141568,
			"target":34963
		}
	],
	"samplers":[
		{
			"magFilter":9729,
			"minFilter":9987
		}
	],
	"buffers":[
		{
			"byteLength":153520,
			"uri":"cornell.bin"
		}
	]
}
