{
	"asset":{
		"generator":"Khronos glTF Blender I/O v3.5.30",
		"version":"2.0"
	},
	"extensionsUsed":[
		"KHR_materials_transmission",
		"KHR_materials_specular"
	],
	"scene":0,
	"scenes":[
		{
			"name":"Scene",
			"nodes":[
				0,
				1,
				2
			]
		}
	],
	"nodes":[
		{
			"mesh":0,
			"name":"Box001",
			"rotation":[
				-0.023020585998892784,
				0,
				-0.9994699358940125,
				0.023020582273602486
			],
			"scale":[
				0.025000005960464478,
				0.025000005960464478,
				0.02500000037252903
			],
			"translation":[
				-0.07999999821186066,
				1.590000033378601,
				1.5400002002716064
			]
		},
		{
			"mesh":1,
			"name":"Box003",
			"rotation":[
				0.7071069478988647,
				0,
				0,
				0.7071066498756409
			],
			"scale":[
				0.02500000037252903,
				0.02499999664723873,
				0.02499999664723873
			]
		},
		{
			"mesh":2,
			"name":"Glass_Sphere",
			"rotation":[
				0.7071069478988647,
				0,
				0,
				0.7071066498756409
			],
			"scale":[
				0.05000000074505806,
				0.04999999329447746,
				0.04999999329447746
			],
			"translation":[
				0.09999999403953552,
				0.7199999690055847,
				-0.25
			]
		}
	],
	"materials":[
		{
			"doubleSided":true,
			"emissiveFactor":[
				1,
				1,
				1
			],
			"extensions":{
				"KHR_materials_transmission":{
					"transmissionFactor":1
				},
				"KHR_materials_specular":{
					"specularColorTexture":{
						"index":0
					}
				}
			},
			"name":"Colors",
			"normalTexture":{
				"index":1
			},
			"pbrMetallicRoughness":{
				"baseColorTexture":{
					"index":2
				},
				"metallicFactor":0,
				"roughnessFactor":0.8999999761581421
			}
		}
	],
	"meshes":[
		{
			"name":"Box001",
			"primitives":[
				{
					"attributes":{
						"POSITION":0,
						"TEXCOORD_0":1,
						"NORMAL":2
					},
					"indices":3,
					"material":0
				}
			]
		},
		{
			"name":"Box003",
			"primitives":[
				{
					"attributes":{
						"POSITION":4,
						"TEXCOORD_0":5,
						"NORMAL":6
					},
					"indices":7,
					"material":0
				}
			]
		},
		{
			"name":"Glass_Sphere",
			"primitives":[
				{
					"attributes":{
						"POSITION":8,
						"TEXCOORD_0":9,
						"NORMAL":10
					},
					"indices":11,
					"material":0
				}
			]
		}
	],
	"textures":[
		{
			"sampler":0,
			"source":0
		},
		{
			"sampler":0,
			"source":1
		},
		{
			"sampler":0,
			"source":2
		}
	],
	"images":[
		{
			"mimeType":"image/png",
			"name":"Image",
			"uri":"Image.png"
		},
		{
			"mimeType":"image/png",
			"name":"GlowMapWithReflectionAlpha512",
			"uri":"GlowMapWithReflectionAlpha512.png"
		},
		{
			"mimeType":"image/png",
			"name":"ColorMapWithOpacityAlpha512",
			"uri":"ColorMapWithOpacityAlpha512.png"
		}
	],
	"accessors":[
		{
			"bufferView":0,
			"componentType":5126,
			"count":6819,
			"max":[
				5.9742231369018555,
				47.383949279785156,
				-4.984137058258057
			],
			"min":[
				-9.277078628540039,
				31.41374969482422,
				-15.376930236816406
			],
			"type":"VEC3"
		},
		{
			"bufferView":1,
			"componentType":5126,
			"count":6819,
			"type":"VEC2"
		},
		{
			"bufferView":2,
			"componentType":5126,
			"count":6819,
			"type":"VEC3"
		},
		{
			"bufferView":3,
			"componentType":5123,
			"count":14904,
			"type":"SCALAR"
		},
		{
			"bufferView":4,
			"componentType":5126,
			"count":120,
			"max":[
				53.712074279785156,
				99.80492401123047,
				57.28697204589844
			],
			"min":[
				-55.78070831298828,
				-4.314006805419922,
				-53.39677429199219
			],
			"type":"VEC3"
		},
		{
			"bufferView":5,
			"componentType":5126,
			"count":120,
			"type":"VEC2"
		},
		{
			"bufferView":6,
			"componentType":5126,
			"count":120,
			"type":"VEC3"
		},
		{
			"bufferView":7,
			"componentType":5123,
			"count":180,
			"type":"SCALAR"
		},
		{
			"bufferView":8,
			"componentType":5126,
			"count":1105,
			"max":[
				12.219844818115234,
				49.218563079833984,
				37.743675231933594
			],
			"min":[
				-15.15560245513916,
				21.84311866760254,
				10.368227005004883
			],
			"type":"VEC3"
		},
		{
			"bufferView":9,
			"componentType":5126,
			"count":1105,
			"type":"VEC2"
		},
		{
			"bufferView":10,
			"componentType":5126,
			"count":1105,
			"type":"VEC3"
		},
		{
			"bufferView":11,
			"componentType":5123,
			"count":2880,
			"type":"SCALAR"
		}
	],
	"bufferViews":[
		{
			"buffer":0,
			"byteLength":81828,
			"byteOffset":0,
			"target":34962
		},
		{
			"buffer":0,
			"byteLength":54552,
			"byteOffset":81828,
			"target":34962
		},
		{
			"buffer":0,
			"byteLength":81828,
			"byteOffset":136380,
			"target":34962
		},
		{
			"buffer":0,
			"byteLength":29808,
			"byteOffset":218208,
			"target":34963
		},
		{
			"buffer":0,
			"byteLength":1440,
			"byteOffset":248016,
			"target":34962
		},
		{
			"buffer":0,
			"byteLength":960,
			"byteOffset":249456,
			"target":34962
		},
		{
			"buffer":0,
			"byteLength":1440,
			"byteOffset":250416,
			"target":34962
		},
		{
			"buffer":0,
			"byteLength":360,
			"byteOffset":251856,
			"target":34963
		},
		{
			"buffer":0,
			"byteLength":13260,
			"byteOffset":252216,
			"target":34962
		},
		{
			"buffer":0,
			"byteLength":8840,
			"byteOffset":265476,
			"target":34962
		},
		{
			"buffer":0,
			"byteLength":13260,
			"byteOffset":274316,
			"target":34962
		},
		{
			"buffer":0,
			"byteLength":5760,
			"byteOffset":287576,
			"target":34963
		}
	],
	"samplers":[
		{
			"magFilter":9729,
			"minFilter":9987
		}
	],
	"buffers":[
		{
			"byteLength":293336,
			"uri":"bunny2.bin"
		}
	]
}
